<?xml version="1.0" encoding="UTF-8" standalone="no"?>
<!-- Created with Inkscape (http://www.inkscape.org/) -->

<svg
   xmlns:dc="http://purl.org/dc/elements/1.1/"
   xmlns:cc="http://creativecommons.org/ns#"
   xmlns:rdf="http://www.w3.org/1999/02/22-rdf-syntax-ns#"
   xmlns:svg="http://www.w3.org/2000/svg"
   xmlns="http://www.w3.org/2000/svg"
   xmlns:sodipodi="http://sodipodi.sourceforge.net/DTD/sodipodi-0.dtd"
   xmlns:inkscape="http://www.inkscape.org/namespaces/inkscape"
   width="442.55875"
   height="533.88751"
   id="svg3168"
   version="1.1"
   inkscape:version="0.48.2 r9819"
   sodipodi:docname="schloss.svg">
  <defs
     id="defs3170">
    <clipPath
       clipPathUnits="userSpaceOnUse"
       id="clipPath3020">
      <path
         inkscape:connector-curvature="0"
         d="M 0,8418.9 0,0 l 5952.76,0 0,8418.9 -5952.76,0 z"
         id="path3022" />
    </clipPath>
  </defs>
  <sodipodi:namedview
     id="base"
     pagecolor="#ffffff"
     bordercolor="#ffffff"
     borderopacity="0.0"
     inkscape:pageopacity="0.0"
     inkscape:pageshadow="0"
     inkscape:zoom="0.35"
     inkscape:cx="185.56517"
     inkscape:cy="177.43868"
     inkscape:document-units="px"
     inkscape:current-layer="layer1"
     showgrid="false"
     inkscape:window-width="1400"
     inkscape:window-height="826"
     inkscape:window-x="0"
     inkscape:window-y="59"
     inkscape:window-maximized="0"
     fit-margin-top="0"
     fit-margin-left="0"
     fit-margin-right="0"
     fit-margin-bottom="0" />
  <metadata
     id="metadata3173">
    <rdf:RDF>
      <cc:Work
         rdf:about="">
        <dc:format>image/svg+xml</dc:format>
        <dc:type
           rdf:resource="http://purl.org/dc/dcmitype/StillImage" />
        <dc:title></dc:title>
      </cc:Work>
    </rdf:RDF>
  </metadata>
  <g
     inkscape:label="Layer 1"
     inkscape:groupmode="layer"
     id="layer1"
     transform="translate(-164.43484,-313.98988)">
    <g
       id="g3014"
       transform="matrix(0.125,0,0,-0.125,13.667336,995.81113)">
      <g
         id="g3016">
        <g
           id="g3018"
           clip-path="url(#clipPath3020)">
          <path
             d="m 2701.42,5454.57 c 0,0 -1218.9,0 -1218.9,-1218.9 l 0,-380.55 c 0,0 0,-1218.9 1218.9,-1218.9 l 549.92,0 c 0,0 1218.9,0 1218.9,1218.9 l 0,380.55 c 0,0 0,1218.9 -1218.9,1218.9 l -549.92,0"
             style="fill:#231f20;fill-opacity:1;fill-rule:nonzero;stroke:none"
             id="path3024"
             inkscape:connector-curvature="0" />
          <path
             d="m 2952.52,4862.13 c 0,0 -1110,0 -1110,-1110 l 0,-5.91 c 0,0 0,-1110 1110,-1110 l 47.72,0 c 0,0 1110,0 1110,1110 l 0,5.91 c 0,0 0,1110 -1110,1110 l -47.72,0"
             style="fill:#ffffff;fill-opacity:1;fill-rule:nonzero;stroke:none"
             id="path3026"
             inkscape:connector-curvature="0" />
          <path
             d="m 1376.22,3862.21 c 0,0 -170.08,0 -170.08,-170.08 l 0,-2338.58 c 0,0 0,-170.08 170.08,-170.08 l 3200.32,0 c 0,0 170.07,0 170.07,170.08 l 0,2338.58 c 0,0 0,170.08 -170.07,170.08 l -3200.32,0"
             style="fill:#231f20;fill-opacity:1;fill-rule:nonzero;stroke:none"
             id="path3028"
             inkscape:connector-curvature="0" />
          <path
             d="m 2976.38,2318.74 c 236,0 427.32,192.11 427.32,429.1 0,236.98 -191.32,429.09 -427.32,429.09 -236.01,0 -427.32,-192.11 -427.32,-429.09 0,-236.99 191.31,-429.1 427.32,-429.1"
             style="fill:#ffffff;fill-opacity:1;fill-rule:nonzero;stroke:none"
             id="path3030"
             inkscape:connector-curvature="0" />
          <path
             d="m 2624.88,1824.85 693.78,0 -346.89,1306.02"
             style="fill:#ffffff;fill-opacity:1;fill-rule:nonzero;stroke:none"
             id="path3032"
             inkscape:connector-curvature="0" />
        </g>
      </g>
    </g>
  </g>
</svg>
