<?xml version="1.0" encoding="UTF-8" standalone="no"?>
<!-- Created with Inkscape (http://www.inkscape.org/) -->

<svg
   xmlns:dc="http://purl.org/dc/elements/1.1/"
   xmlns:cc="http://creativecommons.org/ns#"
   xmlns:rdf="http://www.w3.org/1999/02/22-rdf-syntax-ns#"
   xmlns:svg="http://www.w3.org/2000/svg"
   xmlns="http://www.w3.org/2000/svg"
   xmlns:sodipodi="http://sodipodi.sourceforge.net/DTD/sodipodi-0.dtd"
   xmlns:inkscape="http://www.inkscape.org/namespaces/inkscape"
   width="442.55875"
   height="533.87854"
   id="svg3168"
   version="1.1"
   inkscape:version="0.48.1 r9760"
   sodipodi:docname="schloss.svg">
  <defs
     id="defs3170">
    <clipPath
       clipPathUnits="userSpaceOnUse"
       id="clipPath3020">
      <path
         inkscape:connector-curvature="0"
         d="M 0,8418.9 0,0 l 5952.76,0 0,8418.9 -5952.76,0 z"
         id="path3022" />
    </clipPath>
  </defs>
  <sodipodi:namedview
     id="base"
     pagecolor="#ffffff"
     bordercolor="#ffffff"
     borderopacity="0.0"
     inkscape:pageopacity="0.0"
     inkscape:pageshadow="0"
     inkscape:zoom="0.49497475"
     inkscape:cx="316.42694"
     inkscape:cy="251.35218"
     inkscape:document-units="px"
     inkscape:current-layer="layer1"
     showgrid="false"
     inkscape:window-width="1366"
     inkscape:window-height="721"
     inkscape:window-x="-2"
     inkscape:window-y="-3"
     inkscape:window-maximized="1"
     fit-margin-top="0"
     fit-margin-left="0"
     fit-margin-right="0"
     fit-margin-bottom="0" />
  <metadata
     id="metadata3173">
    <rdf:RDF>
      <cc:Work
         rdf:about="">
        <dc:format>image/svg+xml</dc:format>
        <dc:type
           rdf:resource="http://purl.org/dc/dcmitype/StillImage" />
        <dc:title></dc:title>
      </cc:Work>
    </rdf:RDF>
  </metadata>
  <g
     inkscape:label="Layer 1"
     inkscape:groupmode="layer"
     id="layer1"
     transform="translate(-155.86341,-265.42738)">
    <path
       style="fill:#231f20;fill-opacity:1;fill-rule:nonzero;stroke:none"
       d="m 178.34375,-48.5625 c 0,0 -152.375,-0.01875 -152.375,152.34375 l 0,47.59375 c 0,0 0.0125,152.34375 152.375,152.34375 l 31.375,0 c -138.75,0 -138.75,-138.75 -138.75,-138.75 l 0,-0.75 c 0,-138.75 138.75,-138.75 138.75,-138.75 l 5.96875,0 c 138.75,0 138.75,138.75 138.75,138.75 l 0,0.75 c 0,138.75 -138.75,138.75 -138.75,138.75 l 31.40625,0 c 0,0 152.34375,0.0188 152.34375,-152.34375 l 0,-47.59375 c 0,0 0.0188,-152.34375 -152.34375,-152.34375 l -68.75,0 z"
       id="path3024"
       transform="translate(164.43484,313.98988)"
       inkscape:connector-curvature="0" />
    <path
       inkscape:connector-curvature="0"
       id="path3028"
       style="fill:#231f20;fill-opacity:1;fill-rule:nonzero;stroke:none"
       d="m 177.12341,464.46345 c 0,0 -21.26,0 -21.26,21.26 l 0,292.3225 c 0,0 0,21.26 21.26,21.26 l 400.04,0 c 0,0 21.25875,0 21.25875,-21.26 l 0,-292.3225 c 0,0 0,-21.26 -21.25875,-21.26 l -400.04,0" />
    <path
       inkscape:connector-curvature="0"
       id="path3030"
       style="fill:#ffffff;fill-opacity:1;fill-rule:nonzero;stroke:none"
       d="m 377.14341,657.3972 c 29.5,0 53.415,-24.01375 53.415,-53.6375 0,-29.6225 -23.915,-53.63625 -53.415,-53.63625 -29.50125,0 -53.415,24.01375 -53.415,53.63625 0,29.62375 23.91375,53.6375 53.415,53.6375" />
    <path
       inkscape:connector-curvature="0"
       id="path3032"
       style="fill:#ffffff;fill-opacity:1;fill-rule:nonzero;stroke:none"
       d="m 333.20591,719.13345 86.7225,0 -43.36125,-163.2525" />
  </g>
</svg>
