<?xml version="1.0" encoding="UTF-8" standalone="no"?>
<!-- Created with Inkscape (http://www.inkscape.org/) -->

<svg
   xmlns:dc="http://purl.org/dc/elements/1.1/"
   xmlns:cc="http://creativecommons.org/ns#"
   xmlns:rdf="http://www.w3.org/1999/02/22-rdf-syntax-ns#"
   xmlns:svg="http://www.w3.org/2000/svg"
   xmlns="http://www.w3.org/2000/svg"
   xmlns:sodipodi="http://sodipodi.sourceforge.net/DTD/sodipodi-0.dtd"
   xmlns:inkscape="http://www.inkscape.org/namespaces/inkscape"
   id="svg2"
   version="1.1"
   inkscape:version="0.48.1 r9760"
   width="354.55399"
   height="354.55121"
   xml:space="preserve"
   sodipodi:docname="funCKit_logo1.pdf"><metadata
     id="metadata8"><rdf:RDF><cc:Work
         rdf:about=""><dc:format>image/svg+xml</dc:format><dc:type
           rdf:resource="http://purl.org/dc/dcmitype/StillImage" /><dc:title></dc:title></cc:Work></rdf:RDF></metadata><defs
     id="defs6"><clipPath
       clipPathUnits="userSpaceOnUse"
       id="clipPath18"><path
         d="m 0,0 708.661,0 0,498.898 L 0,498.898 0,0 z"
         id="path20"
         inkscape:connector-curvature="0" /></clipPath><clipPath
       clipPathUnits="userSpaceOnUse"
       id="clipPath26"><path
         d="m 0,0 708.661,0 0,498.898 L 0,498.898 0,0 z"
         id="path28"
         inkscape:connector-curvature="0" /></clipPath><clipPath
       clipPathUnits="userSpaceOnUse"
       id="clipPath64"><path
         d="m 0,0 708.661,0 0,498.898 L 0,498.898 0,0 z"
         id="path66"
         inkscape:connector-curvature="0" /></clipPath></defs><sodipodi:namedview
     pagecolor="#ffffff"
     bordercolor="#666666"
     borderopacity="1"
     objecttolerance="10"
     gridtolerance="10"
     guidetolerance="10"
     inkscape:pageopacity="0"
     inkscape:pageshadow="2"
     inkscape:window-width="1366"
     inkscape:window-height="721"
     id="namedview4"
     showgrid="false"
     fit-margin-top="0"
     fit-margin-left="0"
     fit-margin-right="0"
     fit-margin-bottom="0"
     inkscape:zoom="1.0020127"
     inkscape:cx="192.10947"
     inkscape:cy="217.78368"
     inkscape:window-x="-2"
     inkscape:window-y="-3"
     inkscape:window-maximized="1"
     inkscape:current-layer="g10" /><g
     id="g10"
     inkscape:groupmode="layer"
     inkscape:label="funCKit_logo1"
     transform="matrix(1.25,0,0,-1.25,-775.06619,300.96615)"><path
       d="m 683.24734,160.12823 0,-37.4866 c 0,-9.64138 3.73239,-16.96515 11.19851,-21.97214 7.46438,-5.006991 18.3817,-7.510901 32.74858,-7.510901 14.50746,0 25.49407,2.491499 32.96013,7.476121 7.46444,4.98381 11.19757,12.32001 11.19757,22.00692 l 0,37.4866 -16.90235,0 0,-31.58949 c 0,-9.31349 -2.02547,-15.78358 -6.0744,-19.41027 -4.05017,-3.62753 -10.9701,-5.44004 -20.75793,-5.44004 -9.79002,0 -16.74457,1.8357 -20.8643,5.51042 -4.12041,3.67307 -6.18011,10.11997 -6.18011,19.33989 l 0,31.58949 -17.3257,0 z"
       style="fill:#231f20;fill-opacity:1;fill-rule:nonzero;stroke:none"
       id="path32"
       inkscape:connector-curvature="0" /><path
       d="m 867.99121,95.159903 0,37.486607 c 0,9.64137 -3.73212,16.96515 -11.19863,21.97213 -7.464,5.007 -18.38131,7.51091 -32.74858,7.51091 -14.50752,0 -25.49407,-2.49149 -32.96021,-7.47613 -7.46436,-4.98381 -11.19749,-12.32 -11.19749,-22.00691 l 0,-37.486607 16.90274,0 0,31.589497 c 0,9.31349 2.02508,15.78358 6.07395,19.41027 4.05017,3.62752 10.97016,5.44004 20.75844,5.44004 9.78995,0 16.74457,-1.8357 20.86391,-5.51042 4.12035,-3.67307 6.17999,-10.11997 6.17999,-19.33989 l 0,-31.589497 17.32588,0 z"
       style="fill:#231f20;fill-opacity:1;fill-rule:nonzero;stroke:none"
       id="path36"
       inkscape:connector-curvature="0" /><path
       d="m 733.85344,82.765059 -62.50281,0 c -16.07592,0 -28.28738,-5.309174 -36.63579,-15.930232 -8.34899,-10.618335 -12.52457,-26.149134 -12.52457,-46.588306 0,-20.63820577 4.15501,-36.267157 12.46561,-46.88822 8.31024,-10.618335 20.5424,-15.93023 36.69475,-15.93023 l 62.50281,0 0,8.647761 -58.18548,-0.344901 c -15.5289,0 -24.33021,7.099794 -30.37654,12.860197 -6.0477,5.762447 -8.75046,29.6874417 -8.75046,43.612335 0,13.926938 4.60151,34.955713 10.7283,40.816996 6.12472,5.861283 19.54593,12.021119 34.91863,12.021119 l 50.78308,-0.527577 0.88247,8.251058 z"
       style="fill:#231f20;fill-opacity:1;fill-rule:nonzero;stroke:none"
       id="path40"
       inkscape:connector-curvature="0" /><path
       d="m 678.14119,93.666581 0,73.693939 210.19638,-0.14077 0,12.43509 -210.6194,-0.19955 0,22.87633 c 0,10.75008 0.91528,17.50087 2.74641,20.25235 1.83164,2.74983 5.17741,4.12516 10.03671,4.12516 2.25348,0 4.45389,-0.25089 6.60235,-0.75018 2.14704,-0.50094 9.87109,-7.16314 11.98491,-8.22547 l -5.59392,21.07043 c -2.18324,0.68725 -4.45491,1.18654 -6.81295,1.50035 -2.36072,0.31217 -4.84333,0.46866 -7.44795,0.46866 -10.49536,0 -17.76636,-2.51716 -21.81527,-7.54734 -4.05118,-5.03265 -6.07395,-14.6732 -6.07395,-28.92495 l 0,-24.84534 -18.59339,0 -14.69817,-12.23554 33.29156,0.14077 0,-73.693939 16.79668,0 z"
       style="fill:#231f20;fill-opacity:1;fill-rule:nonzero;stroke:none"
       id="path44"
       inkscape:connector-curvature="0" /><path
       d="m 815.67457,82.765125 -14.26243,0.0089 c 0,0 -35.20669,-48.339399 -42.02159,-50.506281 -6.81608,-2.1662 -11.5696,-1.117862 -11.5696,-1.117862 l 0.1066,51.624143 -14.95814,0 0,-125.365614 14.95814,0 0.0653,48.0953749 10.90869,0 c 4.67002,0 10.14567,-0.21812 12.85568,-2.0312395 5.88988,-3.94182991 19.77939,-42.4801574 25.60936,-44.4514144 5.8315,-1.971255 16.07949,-1.592954 16.07949,-1.592954 l 14.38338,-0.01977 0,8.667528 c 0,0 -15.99193,-2.581309 -23.42479,0.21403 -7.43332,2.796021 -17.93519,42.4896998 -28.57957,46.263851 -3.30665,1.172394 -7.72975,1.233739 -12.24827,1.233739 l -16.02921,0 -0.15049,8.817486 c 0,0 22.08761,1.484577 22.08761,3.009369"
       style="fill:#231f20;fill-opacity:1;fill-rule:nonzero;stroke:none"
       id="path48"
       inkscape:connector-curvature="0" /><path
       d="m 825.64824,40.642818 c 2.33018,-1.434136 5.1656,-2.151204 8.50538,-2.151204 3.33934,0 6.15673,0.717068 8.45263,2.151204 2.29578,1.434137 3.44356,3.172277 3.44356,5.215786 0,2.085768 -1.16575,3.867534 -3.49585,5.345294 -2.33152,1.477078 -5.13134,2.216641 -8.40034,2.216641 -3.33978,0 -6.1752,-0.727975 -8.50538,-2.183924 -2.33138,-1.456629 -3.49637,-3.205676 -3.49637,-5.247821 0,-2.130075 1.16499,-3.911839 3.49637,-5.345976 m 13.17937,-81.985711 c 0.85219,0.688441 1.076,4.487812 1.39655,9.673606 0.31,5.015387 0.43105,11.441056 0.44855,17.948517 0.0405,14.8021424 -0.25281,29.941689 -0.25281,29.941689 0,0 -7.50147,2.352284 -12.58836,-0.734109 -5.08555,-3.08571 -1.93226,-57.858954 -1.93226,-57.858954 0,0 5.96378,-0.207896 9.1448,-0.199716 2.49859,0.0062 2.22247,-0.03272 3.78353,1.228967"
       style="fill:#231f20;fill-opacity:1;fill-rule:nonzero;stroke:none"
       id="path52"
       inkscape:connector-curvature="0" /><path
       d="m 857.04265,-42.868056 13.65434,0.448116 -0.86894,56.844441 15.24125,0 18.62685,9.715148 -33.23666,0.0904 0,28.048141 -13.91459,0 -0.20845,-26.60482 -22.23525,-0.169114 -6.26933,-9.754114 28.74426,-0.254063 0.46652,-58.364138 z"
       style="fill:#231f20;fill-opacity:1;fill-rule:nonzero;stroke:none"
       id="path56"
       inkscape:connector-curvature="0" /></g></svg>